<?xml version="1.0" standalone="no"?><!DOCTYPE svg PUBLIC "-//W3C//DTD SVG 1.1//EN" "http://www.w3.org/Graphics/SVG/1.1/DTD/svg11.dtd"><svg t="1612012747149" class="icon" viewBox="0 0 1024 1024" version="1.1" xmlns="http://www.w3.org/2000/svg" p-id="23706" xmlns:xlink="http://www.w3.org/1999/xlink" width="200" height="200"><defs><style type="text/css"></style></defs><path d="M483.555556 487.736889v76.430222h-120.888889a28.444444 28.444444 0 0 0 0 56.888889H483.555556v72.903111a28.444444 28.444444 0 1 0 56.888888 0v-72.903111h120.888889a28.444444 28.444444 0 1 0 0-56.888889H540.444444v-76.430222h120.888889a28.444444 28.444444 0 1 0 0-56.888889h-80.668444l80.355555-80.384a28.444444 28.444444 0 1 0-40.220444-40.220444l-107.576889 107.605333c-0.711111 0.711111-1.365333 1.422222-1.991111 2.190222a28.728889 28.728889 0 0 0-2.360889-2.645333l-106.268444-106.268445a28.444444 28.444444 0 0 0-40.220445 40.220445l79.502222 79.502222H362.666667a28.444444 28.444444 0 0 0 0 56.888889H483.555556zM512 967.111111C260.636444 967.111111 56.888889 763.363556 56.888889 512S260.636444 56.888889 512 56.888889c109.084444 0 212.280889 38.542222 293.831111 107.576889a456.590222 456.590222 0 0 1 117.902222 153.400889C952.177778 378.055111 967.111111 443.989333 967.111111 512c0 251.363556-203.747556 455.111111-455.111111 455.111111z m0-56.888889c219.932444 0 398.222222-178.289778 398.222222-398.222222S731.932444 113.777778 512 113.777778 113.777778 292.067556 113.777778 512s178.289778 398.222222 398.222222 398.222222z m0-28.444444c-204.231111 0-369.777778-165.546667-369.777778-369.777778S307.768889 142.222222 512 142.222222s369.777778 165.546667 369.777778 369.777778-165.546667 369.777778-369.777778 369.777778z" p-id="23707" fill="#1296db"></path></svg>