<?xml version="1.0" standalone="no"?><!DOCTYPE svg PUBLIC "-//W3C//DTD SVG 1.1//EN" "http://www.w3.org/Graphics/SVG/1.1/DTD/svg11.dtd"><svg t="1612012763476" class="icon" viewBox="0 0 1024 1024" version="1.1" xmlns="http://www.w3.org/2000/svg" p-id="24202" xmlns:xlink="http://www.w3.org/1999/xlink" width="200" height="200"><defs><style type="text/css"></style></defs><path d="M737 912.50000001c-9 0-19.50000001-3-28.50000001-7.50000001l-194.99999998-97.50000001-196.50000001 97.50000001c-19.50000001 10.50000001-45 9-63-4.50000001-18-13.50000001-28.50000001-37.50000001-24-59.99999998l40.50000001-210L116 486.49999999C99.49999999 470 93.49999999 444.49999999 99.49999999 423.49999999c7.50000002-22.50000003 25.50000001-39 49.50000001-41.99999998l214.50000001-39 95.99999998-195.00000002c10.50000001-20.99999999 31.50000001-34.50000001 54-34.49999999s45 13.50000001 54 34.50000001l96 194.99999998 214.50000001 37.50000001c22.50000003 3 42 19.50000001 48 42 7.50000002 22.50000003 1.50000001 46.50000001-15 63L756.50000001 630.50000001l38.99999998 209.99999997c4.50000001 24.00000001-6 46.50000001-24 60.00000003-9 7.50000002-20.99999999 12-34.49999999 12z" fill="#1296db" p-id="24203"></path></svg>