<?xml version="1.0" standalone="no"?><!DOCTYPE svg PUBLIC "-//W3C//DTD SVG 1.1//EN" "http://www.w3.org/Graphics/SVG/1.1/DTD/svg11.dtd"><svg t="1610689475523" class="icon" viewBox="0 0 1024 1024" version="1.1" xmlns="http://www.w3.org/2000/svg" p-id="8705" xmlns:xlink="http://www.w3.org/1999/xlink" width="200" height="200"><defs><style type="text/css"></style></defs><path d="M377.74416 511.654875m-77.888143 0a77.888143 77.888143 0 1 0 155.776286 0 77.888143 77.888143 0 1 0-155.776286 0Z" fill="#6096E7" opacity=".6" p-id="8706"></path><path d="M110.707672 653.556148m-77.888143 0a77.888143 77.888143 0 1 0 155.776286 0 77.888143 77.888143 0 1 0-155.776286 0Z" fill="#6096E7" opacity=".6" p-id="8707"></path><path d="M317.792498 946.111857m-77.888143 0a77.888143 77.888143 0 1 0 155.776286 0 77.888143 77.888143 0 1 0-155.776286 0Z" fill="#6096E7" opacity=".6" p-id="8708"></path><path d="M589.700746 331.089632m-77.888143 0a77.888143 77.888143 0 1 0 155.776286 0 77.888143 77.888143 0 1 0-155.776286 0Z" fill="#6096E7" opacity=".6" p-id="8709"></path><path d="M897.982137 564.513975m-77.888143 0a77.888143 77.888143 0 1 0 155.776286 0 77.888143 77.888143 0 1 0-155.776286 0Z" fill="#6096E7" opacity=".6" p-id="8710"></path><path d="M673.571051 77.888143m-77.888144 0a77.888143 77.888143 0 1 0 155.776287 0 77.888143 77.888143 0 1 0-155.776287 0Z" fill="#6096E7" opacity=".6" p-id="8711"></path><path d="M667.888998 831.780546m-77.888144 0a77.888143 77.888143 0 1 0 155.776287 0 77.888143 77.888143 0 1 0-155.776287 0Z" fill="#6096E7" opacity=".6" p-id="8712"></path><path d="M983.70311 21.077616a44.876215 44.876215 0 0 1 5.952151 36.353135c-32.35169 121.643953-233.314303 761.355099-892.072331 810.042692a43.665778 43.665778 0 0 1-35.732911-14.475231c-23.758585-26.579604-7.412678-68.814865 28.01012-72.616238 187.067593-20.007229 613.271592-135.048797 813.77404-748.46044 11.694225-35.642879 59.361449-42.09521 80.068931-10.843918z" fill="#6096E7" p-id="8713"></path></svg>