<?xml version="1.0" standalone="no"?><!DOCTYPE svg PUBLIC "-//W3C//DTD SVG 1.1//EN" "http://www.w3.org/Graphics/SVG/1.1/DTD/svg11.dtd"><svg t="1610689470980" class="icon" viewBox="0 0 1024 1024" version="1.1" xmlns="http://www.w3.org/2000/svg" p-id="8574" xmlns:xlink="http://www.w3.org/1999/xlink" width="200" height="200"><defs><style type="text/css"></style></defs><path d="M302.4 465.6c14.4 0 25.6-1.6 36.8-6.4-36.8-40-60.8-96-60.8-155.2 0-41.6 11.2-81.6 30.4-116.8h-6.4c-76.8 0-139.2 62.4-139.2 139.2s62.4 139.2 139.2 139.2z" fill="#A6C6FC" p-id="8575"></path><path d="M838.4 860.8c0 14.4 0 46.4-46.4 46.4h-560c-46.4 0-46.4-32-46.4-46.4 0-179.2 147.2-326.4 326.4-326.4s326.4 147.2 326.4 326.4z" fill="#5D98F9" p-id="8576"></path><path d="M142.4 838.4H70.4c-25.6 0-46.4-20.8-46.4-46.4C24 636.8 148.8 512 302.4 512c20.8 0 41.6 3.2 62.4 6.4-124.8 54.4-216 174.4-222.4 320zM744 302.4c0-41.6-11.2-81.6-30.4-116.8h6.4c76.8 0 139.2 62.4 139.2 139.2S796.8 464 720 464c-11.2 0-25.6-4.8-36.8-6.4 38.4-38.4 60.8-94.4 60.8-155.2zM1000 792c0 25.6-20.8 46.4-46.4 46.4h-72c-9.6-144-97.6-265.6-224-318.4 20.8-4.8 41.6-6.4 62.4-6.4 155.2-1.6 280 123.2 280 278.4z" fill="#A6C6FC" p-id="8577"></path><path d="M340.464294 373.425978a185.6 185.6 0 1 0 342.944082-142.05209 185.6 185.6 0 1 0-342.944082 142.05209Z" fill="#5D98F9" p-id="8578"></path></svg>