<?xml version="1.0" standalone="no"?><!DOCTYPE svg PUBLIC "-//W3C//DTD SVG 1.1//EN" "http://www.w3.org/Graphics/SVG/1.1/DTD/svg11.dtd"><svg t="1610608008707" class="icon" viewBox="0 0 1024 1024" version="1.1" xmlns="http://www.w3.org/2000/svg" p-id="6585" xmlns:xlink="http://www.w3.org/1999/xlink" width="200" height="200"><defs><style type="text/css"></style></defs><path d="M451.193528 970.042592c0 29.794318 26.722739 53.957408 59.793408 53.957408 33.070669 0 59.793408-24.16309 59.793408-53.957408V199.792916L767.873343 415.213004c23.344002 21.296282 61.431584 21.296282 84.877971 0a50.885829 50.885829 0 0 0 0-76.78948L557.367782 15.498165A62.762602 62.762602 0 0 0 511.90841 0.140269a62.55783 62.55783 0 0 0-45.356986 15.357896L171.167891 338.321138a50.783443 50.783443 0 0 0 0 76.78948c23.344002 21.398668 61.431584 21.398668 84.775586 0L451.193528 201.840636v768.201956z" fill="#FF0000" p-id="6586"></path></svg>