<?xml version="1.0" standalone="no"?><!DOCTYPE svg PUBLIC "-//W3C//DTD SVG 1.1//EN" "http://www.w3.org/Graphics/SVG/1.1/DTD/svg11.dtd"><svg t="1612012755413" class="icon" viewBox="0 0 1079 1024" version="1.1" xmlns="http://www.w3.org/2000/svg" p-id="23870" xmlns:xlink="http://www.w3.org/1999/xlink" width="210.7421875" height="200"><defs><style type="text/css"></style></defs><path d="M669.1072 492.3392h54.9632v45.7472h-54.9632v-45.7472zM1079.424 344.9856h-87.7824a512.5888 512.5888 0 0 0-91.8272-162.0736H1012.864V83.3792h-223.5392A502.0928 502.0928 0 0 0 512 0a512 512 0 0 0 0 1024 501.4016 501.4016 0 0 0 230.7584-56.32H1012.864v-99.5328h-136.4736a511.6928 511.6928 0 0 0 105.4208-162.048H1079.424v-99.5072h-68.6592a483.2 483.2 0 0 0 4.1216-162.0992H1079.424v-99.5072zM543.0784 237.7728a454.8864 454.8864 0 0 1 33.8688 68.2752l-65.3056 24.3968q-19.4048-36.5824-36.2752-68.2752z m-130.56 239.0016h-87.04v58.5216h77.4144v170.6752q0 48.8448-21.8112 63.4368-19.4048 17.0496-99.1488 26.8288a208.3072 208.3072 0 0 0-26.5728-73.1648q87.04 12.2624 74.9312-53.76v-68.1984H257.664v-190.208h79.8208v-65.8432H235.9296v-65.8688h176.64v197.5808zM782.464 701.1328h-147.5584v99.84h-74.9312v-99.84h-137.856V637.696h137.856v-41.472h-120.9344v-258.56H610.944q14.464-43.904 24.1408-78.0544a118.8864 118.8864 0 0 1 9.728-26.8288 777.0112 777.0112 0 0 1 84.6336 29.2864 14.2592 14.2592 0 0 1-7.2704 7.3216 386.56 386.56 0 0 0-45.952 68.2752h74.9824v258.56h-118.528v41.472H782.464v63.4368z m-113.408-324.6336h54.9632v42.6752H669.056v-42.6752z m-149.504 115.84h58.112v45.7472h-57.984v-45.7472z m0-115.84h58.112v42.6752h-57.984v-42.6752z" p-id="23871" fill="#1296db"></path></svg>