<?xml version="1.0" standalone="no"?><!DOCTYPE svg PUBLIC "-//W3C//DTD SVG 1.1//EN" "http://www.w3.org/Graphics/SVG/1.1/DTD/svg11.dtd"><svg t="1615534329356" class="icon" viewBox="0 0 1024 1024" version="1.1" xmlns="http://www.w3.org/2000/svg" p-id="2570" xmlns:xlink="http://www.w3.org/1999/xlink" width="200" height="200"><defs><style type="text/css"></style></defs><path d="M1012.297143 258.925714c-38.034286-45.348571-157.988571-51.2-207.725714-51.2-62.902857 0-206.262857-10.24-207.725715-10.24l-43.885714-2.925714 24.868571 36.571429s21.942857 32.182857 33.645715 64.365714v1.462857c5.851429 14.628571 10.24 32.182857 10.24 49.737143 0 7.314286-1.462857 13.165714-2.925715 20.48-1.462857 5.851429-2.925714 13.165714-4.388571 23.405714-7.314286 55.588571-10.24 125.805714 16.091429 144.822857 5.851429 2.925714 11.702857 5.851429 17.554285 5.851429 5.851429 0 10.24-1.462857 16.091429-4.388572 36.571429-20.48 77.531429-57.051429 117.028571-92.16 33.645714-30.72 68.754286-62.902857 87.771429-68.754285 20.48-7.314286 38.034286-11.702857 54.125714-17.554286 67.291429-21.942857 95.085714-30.72 100.937143-54.125714 1.462857-17.554286-1.462857-32.182857-11.702857-45.348572zM655.36 491.52l26.331429-19.017143c-8.777143 7.314286-17.554286 13.165714-26.331429 19.017143z" fill="#d81e06" p-id="2571"></path><path d="M643.657143 611.474286c-1.462857 0-1.462857-1.462857 0 0-1.462857-1.462857-2.925714-1.462857-2.925714-1.462857-39.497143-21.942857-76.068571-62.902857-76.068572-64.365715l-2.925714-5.851428c-11.702857-29.257143-17.554286-59.977143-17.554286-90.697143 0-14.628571 4.388571-29.257143 8.777143-45.348572 4.388571-17.554286 10.24-35.108571 10.24-54.125714 0-117.028571-138.971429-188.708571-267.702857-188.708571C150.674286 160.914286 48.274286 244.297143 14.628571 387.657143-7.314286 492.982857 2.925714 582.217143 13.165714 661.211429c8.777143 76.068571 17.554286 141.897143-7.314285 203.337142-8.777143 20.48 2.925714 32.182857 5.851428 35.108572 2.925714 2.925714 7.314286 7.314286 16.091429 7.314286 24.868571 0 87.771429-24.868571 276.48-144.822858 21.942857-13.165714 38.034286-19.017143 58.514285-26.331428 21.942857-7.314286 48.274286-16.091429 83.382858-39.497143 38.034286-23.405714 76.068571-65.828571 100.937142-111.177143 7.314286 10.24 33.645714 38.034286 74.605715 59.977143 1.462857 1.462857 4.388571 1.462857 7.314285 1.462857 11.702857 1.462857 20.48-5.851429 21.942858-17.554286 1.462857-7.314286-2.925714-13.165714-7.314286-17.554285z m-389.12-351.085715c-109.714286 21.942857-182.857143 87.771429-184.32 76.068572-1.462857-10.24 58.514286-100.937143 168.228571-122.88s226.742857 33.645714 228.205715 45.348571c2.925714 10.24-102.4-20.48-212.114286 1.462857z" fill="#d81e06" p-id="2572"></path></svg>