<?xml version="1.0" standalone="no"?><!DOCTYPE svg PUBLIC "-//W3C//DTD SVG 1.1//EN" "http://www.w3.org/Graphics/SVG/1.1/DTD/svg11.dtd"><svg t="1613697889064" class="icon" viewBox="0 0 1102 1024" version="1.1" xmlns="http://www.w3.org/2000/svg" p-id="2435" xmlns:xlink="http://www.w3.org/1999/xlink" width="215.234375" height="200"><defs><style type="text/css"></style></defs><path d="M753.191 32.295c160.69 0 287.587 143.754 296.015 312.911 0 101.494-46.474 173.371-84.559 232.566-109.961 164.943-376.359 376.36-389.04 384.788-12.683 8.507-25.365 12.721-38.046 12.721-12.722 0-25.403-4.214-38.085-12.682-12.682-8.467-283.333-215.67-389.042-384.787-38.045-59.274-84.558-131.19-84.558-232.645 0-169.157 126.818-312.95 287.507-312.95 84.599 0 164.943 42.299 219.924 114.215A266.83 266.83 0 0 1 753.191 32.217z m-4.214 71.877c-88.812 0-169.157 59.195-202.988 143.754l-0.276 2.836c-1.575 7.404-9.098 14.1-16.62 14.1-8.468 0-12.682-8.468-16.935-16.936l-3.663-8.664c-35.722-79.912-113.546-135.09-199.286-135.09-122.644 0-219.924 105.709-219.924 241.034 0 80.345 33.87 135.326 71.916 194.52 101.455 160.69 372.106 367.892 372.106 367.892s270.651-207.202 372.145-367.891c38.046-59.195 71.877-114.216 63.41-194.56 0-131.072-97.28-241.034-219.885-241.034z m-5.356 193.773c45.804 0 60.337 62.542 63.96 111.97 3.348 45.41-27.923 114.215-42.062 126.03-23.158 19.3-65.851 11.422-68.136-28.12-1.22-20.834 34.501-19.535 37.81-91.293 2.087-44.623-29.736-54.194-28.2-81.408a38.242 38.242 0 0 1 36.628-37.18z" p-id="2436" fill="#d81e06"></path></svg>