<?xml version="1.0" standalone="no"?><!DOCTYPE svg PUBLIC "-//W3C//DTD SVG 1.1//EN" "http://www.w3.org/Graphics/SVG/1.1/DTD/svg11.dtd"><svg t="1612157340820" class="icon" viewBox="0 0 1024 1024" version="1.1" xmlns="http://www.w3.org/2000/svg" p-id="7437" xmlns:xlink="http://www.w3.org/1999/xlink" width="200" height="200"><defs><style type="text/css"></style></defs><path d="M512 0c282.8 0 512 229.2 512 512s-229.2 512-512 512S0 794.8 0 512 229.2 0 512 0z m126.4 418.7l-144.5 143c-3.4 3.4-8.1 5.5-13.3 5.5-5.2 0-9.9-2.1-13.3-5.5l-81.6-80.8c-3.4-3.4-5.5-8-5.5-13.2 0-10.3 8.4-18.6 18.9-18.6 5.2 0 9.9 2.1 13.3 5.5l68.4 67.6L612 392.4c3.4-3.4 8.1-5.5 13.3-5.5 10.4 0 18.9 8.4 18.8 18.6-0.2 5.1-2.3 9.8-5.7 13.2z m116.4-111.1c-8.1-8.2-19.4-13.2-31.8-13.2H301c-11.9 0-23.4 4.8-31.8 13.2-8.2 8.2-13.2 19.4-13.2 31.9v267.8c0 12 4.8 23.4 13.2 31.9 8.4 8.5 19.9 13.2 31.8 13.2h194.1v43.5h-94.4c-9.3 0-16.8 7.5-16.8 16.8s7.5 16.8 16.8 16.8h222.6c9.3 0 16.8-7.5 16.8-16.8s-7.5-16.8-16.8-16.8h-94.4v-42.5-1H723c11.9 0 23.4-4.8 31.8-13.2 8.5-8.4 13.2-19.9 13.2-31.9V339.5c0-12-4.8-23.4-13.2-31.9z" p-id="7438" fill="#d81e06"></path></svg>