<?xml version="1.0" standalone="no"?><!DOCTYPE svg PUBLIC "-//W3C//DTD SVG 1.1//EN" "http://www.w3.org/Graphics/SVG/1.1/DTD/svg11.dtd"><svg t="1615271057986" class="icon" viewBox="0 0 1185 1024" version="1.1" xmlns="http://www.w3.org/2000/svg" p-id="4365" xmlns:xlink="http://www.w3.org/1999/xlink" width="231.4453125" height="200"><defs><style type="text/css"></style></defs><path d="M713.749231 306.444741A302.519775 302.519775 0 0 0 420.625588 0.654161a298.832685 298.832685 0 0 0-293.064173 305.79058 306.801556 306.801556 0 0 0 170.141355 276.710146v66.546025h248.343342V583.154887a306.206865 306.206865 0 0 0 168.951972-276.710146h-1.248853z m124.17167 716.72269a361.988966 361.988966 0 0 0 3.092398-47.575352 402.249608 402.249608 0 0 0-420.090365-381.851676h-0.297346a403.082177 403.082177 0 0 0-420.387711 380.0676 383.041059 383.041059 0 0 0 3.092398 47.575353z m346.824322-798.849643a17.840757 17.840757 0 0 1-16.710842 20.160056h-360.918521a19.327487 19.327487 0 0 1-18.673326-20.100586v-12.548a19.327487 19.327487 0 0 1 18.554388-20.160055h358.480283a19.386956 19.386956 0 0 1 18.613857 20.160055z m0 178.823858a17.840757 17.840757 0 0 1-16.710842 20.160056h-360.918521a19.327487 19.327487 0 0 1-18.673326-20.100587v-12.547999a19.446425 19.446425 0 0 1 18.554388-20.219525h358.480283a19.386956 19.386956 0 0 1 18.613857 20.160056z m-1.903014 175.909867c0 10.704454-3.092398 20.219525-11.180208 20.219525h-380.602822a18.197572 18.197572 0 0 1-14.867298-20.219525v-10.882862a18.613857 18.613857 0 0 1 14.867298-20.160056h377.926709a17.067658 17.067658 0 0 1 13.083222 20.160056z m1.903014-176.326151a17.840757 17.840757 0 0 1-16.710842 20.160055h-360.918521a19.327487 19.327487 0 0 1-18.673326-20.100586v-12.548a19.327487 19.327487 0 0 1 18.554388-20.160055h358.480283a19.386956 19.386956 0 0 1 18.613857 20.160055z m-1.903014 354.733724c0 10.704454-3.092398 20.219525-11.180208 20.219525h-256.490621a18.197572 18.197572 0 0 1-14.926766-20.219525v-10.882862a18.613857 18.613857 0 0 1 14.926766-20.160056h253.992915a17.067658 17.067658 0 0 1 13.083222 20.160056z" p-id="4366" fill="#1296db"></path></svg>