<?xml version="1.0" standalone="no"?><!DOCTYPE svg PUBLIC "-//W3C//DTD SVG 1.1//EN" "http://www.w3.org/Graphics/SVG/1.1/DTD/svg11.dtd"><svg t="1613738116265" class="icon" viewBox="0 0 1024 1024" version="1.1" xmlns="http://www.w3.org/2000/svg" p-id="1604" xmlns:xlink="http://www.w3.org/1999/xlink" width="200" height="200"><defs><style type="text/css"></style></defs><path d="M139.124 600.857L377.029 600.857c-92.1856 340.464 63.5166 357.853 63.5166 357.853 65.993 0 52.3124-52.1825 57.3031-60.8816 0-166.502 176.85-296.972 176.85-296.972l0-472.17199999c0-46.60749999-63.5166-63.3938-88.4331-63.39380001l-357.452 0c-33.6412 0-61.0361 88.2243-61.0361 88.2243-88.4341 300.706-88.4341 390.177-88.4341 390.17699999C79.343 605.821 139.124 600.857 139.124 600.857L139.124 600.857 139.124 600.857ZM139.124 600.857" fill="#d81e06" p-id="1605"></path><path d="M772.329 600.7L914.785 600.7c29.4201 0 29.8734-28.8961 29.8734-28.8961l-29.42010001-476.203c0-30.3093-30.3615-30.3093-30.36149999-30.3093L761.58 65.292c-25.686 0-25.4588 20.0496-25.4588 20.0496L736.121 564.589C736.12100001 601.163 772.329 600.7 772.329 600.7L772.329 600.7 772.329 600.7ZM772.329 600.7" fill="#d81e06" p-id="1606"></path></svg>