<?xml version="1.0" standalone="no"?><!DOCTYPE svg PUBLIC "-//W3C//DTD SVG 1.1//EN" "http://www.w3.org/Graphics/SVG/1.1/DTD/svg11.dtd"><svg t="1612012767731" class="icon" viewBox="0 0 1024 1024" version="1.1" xmlns="http://www.w3.org/2000/svg" p-id="24368" xmlns:xlink="http://www.w3.org/1999/xlink" width="200" height="200"><defs><style type="text/css"></style></defs><path d="M512 0c282.88 0 512 229.12 512 512S794.88 1024 512 1024C229.333333 1024 0 794.88 0 512S229.333333 0 512 0z m-70.186667 341.333333c-31.36 0-56.746667 25.386667-56.746666 56.746667v242.773333a56.64 56.64 0 1 0 85.546666 48.853334l206.08-121.386667c17.28-10.24 27.946667-28.8 27.946667-48.853333s-10.666667-38.613333-27.946667-48.853334l-206.08-121.386666a55.253333 55.253333 0 0 0-28.8-7.893334z m0 0" p-id="24369" fill="#1296db"></path></svg>